<?xml version="1.0" encoding="utf-8"?>
<!-- Svg Vector Icons : http://www.onlinewebfonts.com/icon -->
<!DOCTYPE svg PUBLIC "-//W3C//DTD SVG 1.1//EN" "http://www.w3.org/Graphics/SVG/1.1/DTD/svg11.dtd">
<svg version="1.1" xmlns="http://www.w3.org/2000/svg" xmlns:xlink="http://www.w3.org/1999/xlink" x="0px" y="0px" viewBox="0 0 1000 1000" enable-background="new 0 0 1000 1000" xml:space="preserve">
<metadata> Svg Vector Icons : http://www.onlinewebfonts.com/icon </metadata>
<g><g transform="translate(0.000000,511.000000) scale(0.100000,-0.100000)"><path d="M2056.3,4950.5c-46.5-14.2-125.4-48.5-172-76.9c-48.5-28.3-402.6-368.2-787-756.6C367,3382.7,316.5,3322,203.2,3038.8c-78.9-204.3-103.2-352-103.2-627.1c2-299.4,32.4-453.2,157.8-784.9C978-291.1,2226.2-1968.2,3830.4-3173.9C4868.3-3954.8,6154.9-4590,6986.4-4731.6c226.6-40.5,746.5-34.4,916.4,8.1c299.4,74.8,309.5,82.9,1066.2,849.7c384.4,388.4,732.3,756.6,774.8,815.3c220.5,307.5,206.4,669.6-34.4,867.9c-44.5,38.4-305.5,200.3-578.6,360.1c-273.1,157.8-702,408.7-952.8,556.3c-250.9,147.7-507.8,285.2-568.5,307.5c-269,95.1-542.1,93.1-730.3-4.1c-44.5-22.2-208.3-163.8-366.2-313.6c-307.5-295.4-378.3-350-457.2-350c-89,0-615,331.8-981.2,615c-645.4,503.7-1345.3,1317-1780.3,2071.6l-99.1,167.9l297.4,287.3c252.9,244.8,305.5,307.5,356.1,418.8c121.4,263,119.4,505.8-2,738.4c-878,1677.1-1082.3,2049.3-1169.3,2136.3C2517.5,4960.6,2272.7,5019.3,2056.3,4950.5z M3122.4,1329.3c0-91-10.1-101.2-68.8-78.9c-40.5,16.2-40.5,56.6,0,119.4C3102.2,1444.6,3122.4,1432.5,3122.4,1329.3z"/></g></g>
</svg>